<svg viewBox="0 0 1000 1101.005" xmlns="http://www.w3.org/2000/svg"><path d="m0 500.005q0 102 40 194t106 160q66 68 160 107t194 39q100 0 194-39t160-107q66-68 106-160t40-194q0-102-40-194t-106-160q-66-68-159-106t-195-39q-102-1-194 39t-160 106q-68 66-106 160t-40 194zm132-68q16-86 68-156t131-110q79-40 169-41 123 0 219 72t135 185q-14 44-44 74-37 36-85 49t-96 0q-48-13-85-49-55-55-128-77t-149-9q-76 13-135 62zm14 187q14-44 45-75 55-54 133-54t132.5 54.5q54.5 54.5 128.5 77.5t148 8q74-15 135-61-16 86-68 156t-131 110q-79 40-169 40-123 0-219-71t-135-185z"/></svg>